<svg width="17" height="10" viewBox="0 0 17 10" fill="none" xmlns="http://www.w3.org/2000/svg">
<path d="M16.185 0.516417C16.1026 0.312891 15.9449 0.151156 15.7464 0.0666344C15.6487 0.0239542 15.5439 0.00131602 15.4377 0H11.3764C11.161 0 10.9544 0.0877551 10.8021 0.24396C10.6497 0.400165 10.5641 0.612024 10.5641 0.832931C10.5641 1.05384 10.6497 1.2657 10.8021 1.4219C10.9544 1.57811 11.161 1.66586 11.3764 1.66586H13.4802L8.93962 6.32195L6.26727 3.57327C6.19176 3.4952 6.10192 3.43324 6.00294 3.39095C5.90396 3.34867 5.79779 3.32689 5.69056 3.32689C5.58333 3.32689 5.47717 3.34867 5.37818 3.39095C5.2792 3.43324 5.18936 3.4952 5.11385 3.57327L0.240266 8.57086C0.164134 8.64829 0.103706 8.74041 0.0624688 8.84191C0.0212312 8.94341 0 9.05228 0 9.16224C0 9.2722 0.0212312 9.38107 0.0624688 9.48256C0.103706 9.58407 0.164134 9.67619 0.240266 9.75362C0.315777 9.83169 0.405614 9.89366 0.504596 9.93594C0.603578 9.97823 0.709746 10 0.816974 10C0.924203 10 1.03037 9.97823 1.12935 9.93594C1.22833 9.89366 1.31817 9.83169 1.39368 9.75362L5.69056 5.33909L8.36291 8.08776C8.43842 8.16583 8.52826 8.22779 8.62724 8.27008C8.72622 8.31237 8.83239 8.33414 8.93962 8.33414C9.04685 8.33414 9.15302 8.31237 9.252 8.27008C9.35098 8.22779 9.44082 8.16583 9.51633 8.08776L14.6255 2.84029V4.99759C14.6255 5.21849 14.711 5.43035 14.8634 5.58656C15.0157 5.74276 15.2223 5.83052 15.4377 5.83052C15.6532 5.83052 15.8598 5.74276 16.0121 5.58656C16.1644 5.43035 16.25 5.21849 16.25 4.99759V0.832931C16.2487 0.724086 16.2266 0.616554 16.185 0.516417Z" fill="#A0EBFB"/>
</svg>
